<?xml version="1.0" encoding="utf-8"?>
<!-- Generator: Adobe Illustrator 19.0.1, SVG Export Plug-In . SVG Version: 6.00 Build 0)  -->
<svg version="1.1" xmlns="http://www.w3.org/2000/svg" xmlns:xlink="http://www.w3.org/1999/xlink" x="0px" y="0px"
	 viewBox="0 0 60 60" style="enable-background:new 0 0 60 60;" xml:space="preserve">
<style type="text/css">
	.st0{enable-background:new    ;}
	.st1{fill:#333333;}
</style>
<g id="_x3E__1_" class="st0">
	<g id="_x3E_">
		<g>
			<path class="st1" d="M46.6,30.8L32.1,16.2c-1.1-1.2-3-1.2-4.1,0L13.4,30.8c-0.4,0.4-0.4,1.2,0,1.6c0.4,0.4,1.1,0.4,1.6,0l13.9-14
				v16.5c0,0.6,0.5,1.1,1.1,1.1c0.6,0,1.1-0.5,1.1-1.1V18.4l13.9,14c0.4,0.4,1.1,0.4,1.6,0C47,32,47,31.3,46.6,30.8z"/>
		</g>
	</g>
</g>
<g id="_x31__1_" class="st0">
	<g id="_x31_">
		<g>
			<path class="st1" d="M30,44c-0.8,0-1.5,0.7-1.5,1.5S29.2,47,30,47s1.5-0.7,1.5-1.5S30.8,44,30,44z M30,42c0.8,0,1.5-0.7,1.5-1.5
				S30.8,39,30,39s-1.5,0.7-1.5,1.5S29.2,42,30,42z"/>
		</g>
	</g>
</g>
</svg>
